<svg width="200" height="60" viewBox="0 0 200 60" fill="none" xmlns="http://www.w3.org/2000/svg">
<g clip-path="url(#clip0_1_92)">
<rect x="1.5" y="1.5" width="197" height="57" stroke="#D3176D" stroke-width="3"/>
<rect x="176.93" width="33.4857" height="3" transform="rotate(40.0493 176.93 0)" fill="#D3176D"/>
<path d="M203.5 23L203 -3.5L173 -2.5L203.5 23Z" fill="black" stroke="#D3176D"/>
<path d="M200 14L183 0H200V14Z" fill="#D3176D"/>
<path d="M28.25 39V21.15H42.375V39H38.6V24.3H32.025V39H28.25ZM58.9779 32.15C58.9779 33.2833 58.8196 34.2917 58.5029 35.175C58.2029 36.0583 57.7613 36.8083 57.1779 37.425C56.6113 38.025 55.9196 38.4833 55.1029 38.8C54.2863 39.1 53.3613 39.25 52.3279 39.25C51.3779 39.25 50.4946 39.1 49.6779 38.8C48.8779 38.4833 48.1863 38.025 47.6029 37.425C47.0196 36.8083 46.5613 36.0583 46.2279 35.175C45.9113 34.2917 45.7529 33.2833 45.7529 32.15C45.7529 30.6333 46.0196 29.3583 46.5529 28.325C47.0863 27.275 47.8529 26.475 48.8529 25.925C49.8529 25.375 51.0363 25.1 52.4029 25.1C53.6863 25.1 54.8196 25.375 55.8029 25.925C56.7863 26.475 57.5613 27.275 58.1279 28.325C58.6946 29.3583 58.9779 30.6333 58.9779 32.15ZM49.5529 32.15C49.5529 33.05 49.6446 33.8083 49.8279 34.425C50.0279 35.025 50.3363 35.4833 50.7529 35.8C51.1696 36.1 51.7113 36.25 52.3779 36.25C53.0446 36.25 53.5779 36.1 53.9779 35.8C54.3946 35.4833 54.6946 35.025 54.8779 34.425C55.0779 33.8083 55.1779 33.05 55.1779 32.15C55.1779 31.25 55.0779 30.5 54.8779 29.9C54.6946 29.3 54.3946 28.85 53.9779 28.55C53.5613 28.25 53.0196 28.1 52.3529 28.1C51.3696 28.1 50.6529 28.4417 50.2029 29.125C49.7696 29.7917 49.5529 30.8 49.5529 32.15ZM74.3314 25.35V36.275H76.3314V43.9H72.9814V39H63.8064V43.9H60.4564V36.275H61.6064C62.2064 35.3583 62.7148 34.3167 63.1314 33.15C63.5481 31.9667 63.8814 30.7083 64.1314 29.375C64.3814 28.0417 64.5648 26.7 64.6814 25.35H74.3314ZM67.8064 28.15C67.6731 29.15 67.5064 30.125 67.3064 31.075C67.1064 32.0083 66.8564 32.9083 66.5564 33.775C66.2731 34.6417 65.9231 35.475 65.5064 36.275H70.6064V28.15H67.8064ZM86.258 25.1C87.7913 25.1 89.033 25.7 89.983 26.9C90.933 28.0833 91.408 29.8333 91.408 32.15C91.408 33.7 91.183 35.0083 90.733 36.075C90.283 37.125 89.6663 37.9167 88.883 38.45C88.0997 38.9833 87.1913 39.25 86.158 39.25C85.508 39.25 84.9413 39.1667 84.458 39C83.9913 38.8333 83.5913 38.6167 83.258 38.35C82.9247 38.0833 82.633 37.8 82.383 37.5H82.183C82.2497 37.8167 82.2997 38.15 82.333 38.5C82.3663 38.8333 82.383 39.1667 82.383 39.5V45H78.658V25.35H81.683L82.208 27.125H82.383C82.633 26.7583 82.933 26.425 83.283 26.125C83.633 25.8083 84.0497 25.5583 84.533 25.375C85.033 25.1917 85.608 25.1 86.258 25.1ZM85.058 28.075C84.408 28.075 83.8913 28.2083 83.508 28.475C83.1247 28.7417 82.8413 29.15 82.658 29.7C82.4913 30.2333 82.3997 30.9083 82.383 31.725V32.125C82.383 33.0083 82.4663 33.7583 82.633 34.375C82.7997 34.975 83.083 35.4333 83.483 35.75C83.883 36.0667 84.4247 36.225 85.108 36.225C85.6747 36.225 86.1413 36.0667 86.508 35.75C86.8747 35.4333 87.1497 34.9667 87.333 34.35C87.5163 33.7333 87.608 32.9833 87.608 32.1C87.608 30.7667 87.3997 29.7667 86.983 29.1C86.583 28.4167 85.9413 28.075 85.058 28.075ZM106.878 32.15C106.878 33.2833 106.72 34.2917 106.403 35.175C106.103 36.0583 105.662 36.8083 105.078 37.425C104.512 38.025 103.82 38.4833 103.003 38.8C102.187 39.1 101.262 39.25 100.228 39.25C99.2783 39.25 98.395 39.1 97.5783 38.8C96.7783 38.4833 96.0867 38.025 95.5033 37.425C94.92 36.8083 94.4617 36.0583 94.1283 35.175C93.8117 34.2917 93.6533 33.2833 93.6533 32.15C93.6533 30.6333 93.92 29.3583 94.4533 28.325C94.9867 27.275 95.7533 26.475 96.7533 25.925C97.7533 25.375 98.9367 25.1 100.303 25.1C101.587 25.1 102.72 25.375 103.703 25.925C104.687 26.475 105.462 27.275 106.028 28.325C106.595 29.3583 106.878 30.6333 106.878 32.15ZM97.4533 32.15C97.4533 33.05 97.545 33.8083 97.7283 34.425C97.9283 35.025 98.2367 35.4833 98.6533 35.8C99.07 36.1 99.6117 36.25 100.278 36.25C100.945 36.25 101.478 36.1 101.878 35.8C102.295 35.4833 102.595 35.025 102.778 34.425C102.978 33.8083 103.078 33.05 103.078 32.15C103.078 31.25 102.978 30.5 102.778 29.9C102.595 29.3 102.295 28.85 101.878 28.55C101.462 28.25 100.92 28.1 100.253 28.1C99.27 28.1 98.5533 28.4417 98.1033 29.125C97.67 29.7917 97.4533 30.8 97.4533 32.15ZM109.132 30.825C109.132 28.8083 109.382 27.1 109.882 25.7C110.382 24.2833 111.174 23.1583 112.257 22.325C113.34 21.475 114.757 20.9 116.507 20.6C117.39 20.45 118.282 20.325 119.182 20.225C120.099 20.1083 121.04 19.9917 122.007 19.875L122.432 23.125C122.015 23.175 121.557 23.2333 121.057 23.3C120.557 23.35 120.049 23.4083 119.532 23.475C119.032 23.525 118.549 23.5833 118.082 23.65C117.615 23.7167 117.19 23.775 116.807 23.825C116.19 23.925 115.649 24.0667 115.182 24.25C114.715 24.4167 114.324 24.6583 114.007 24.975C113.69 25.2917 113.44 25.725 113.257 26.275C113.09 26.8083 112.982 27.5 112.932 28.35H113.107C113.307 28.0333 113.582 27.7167 113.932 27.4C114.299 27.0833 114.749 26.8167 115.282 26.6C115.815 26.3833 116.424 26.275 117.107 26.275C118.19 26.275 119.132 26.5 119.932 26.95C120.732 27.4 121.349 28.0667 121.782 28.95C122.215 29.8333 122.432 30.9333 122.432 32.25C122.432 33.8 122.149 35.0917 121.582 36.125C121.015 37.1583 120.232 37.9417 119.232 38.475C118.232 38.9917 117.074 39.25 115.757 39.25C114.757 39.25 113.849 39.0667 113.032 38.7C112.215 38.3333 111.515 37.7917 110.932 37.075C110.349 36.3583 109.899 35.475 109.582 34.425C109.282 33.375 109.132 32.175 109.132 30.825ZM115.982 36.225C116.515 36.225 116.974 36.1083 117.357 35.875C117.757 35.6417 118.065 35.2583 118.282 34.725C118.515 34.1917 118.632 33.475 118.632 32.575C118.632 31.4917 118.449 30.6333 118.082 30C117.732 29.35 117.115 29.025 116.232 29.025C115.699 29.025 115.199 29.1583 114.732 29.425C114.282 29.675 113.899 29.9667 113.582 30.3C113.265 30.6167 113.049 30.8917 112.932 31.125C112.932 31.775 112.982 32.4083 113.082 33.025C113.182 33.625 113.349 34.1667 113.582 34.65C113.815 35.1333 114.124 35.5167 114.507 35.8C114.907 36.0833 115.399 36.225 115.982 36.225ZM129.234 25.35V30.6H134.434V25.35H138.159V39H134.434V33.375H129.234V39H125.509V25.35H129.234ZM147.686 25.1C148.953 25.1 150.036 25.3417 150.936 25.825C151.853 26.3083 152.561 27.0083 153.061 27.925C153.561 28.8417 153.811 29.9667 153.811 31.3V33.1H145.011C145.045 34.15 145.353 34.975 145.936 35.575C146.536 36.175 147.361 36.475 148.411 36.475C149.295 36.475 150.095 36.3917 150.811 36.225C151.528 36.0417 152.27 35.7667 153.036 35.4V38.275C152.37 38.6083 151.661 38.85 150.911 39C150.178 39.1667 149.286 39.25 148.236 39.25C146.87 39.25 145.661 39 144.611 38.5C143.561 37.9833 142.736 37.2083 142.136 36.175C141.536 35.1417 141.236 33.8417 141.236 32.275C141.236 30.675 141.503 29.35 142.036 28.3C142.586 27.2333 143.345 26.4333 144.311 25.9C145.278 25.3667 146.403 25.1 147.686 25.1ZM147.711 27.75C146.995 27.75 146.395 27.9833 145.911 28.45C145.445 28.9167 145.17 29.6417 145.086 30.625H150.311C150.311 30.075 150.211 29.5833 150.011 29.15C149.828 28.7167 149.545 28.375 149.161 28.125C148.778 27.875 148.295 27.75 147.711 27.75ZM162.457 25.1C163.724 25.1 164.807 25.3417 165.707 25.825C166.624 26.3083 167.332 27.0083 167.832 27.925C168.332 28.8417 168.582 29.9667 168.582 31.3V33.1H159.782C159.815 34.15 160.124 34.975 160.707 35.575C161.307 36.175 162.132 36.475 163.182 36.475C164.065 36.475 164.865 36.3917 165.582 36.225C166.299 36.0417 167.04 35.7667 167.807 35.4V38.275C167.14 38.6083 166.432 38.85 165.682 39C164.949 39.1667 164.057 39.25 163.007 39.25C161.64 39.25 160.432 39 159.382 38.5C158.332 37.9833 157.507 37.2083 156.907 36.175C156.307 35.1417 156.007 33.8417 156.007 32.275C156.007 30.675 156.274 29.35 156.807 28.3C157.357 27.2333 158.115 26.4333 159.082 25.9C160.049 25.3667 161.174 25.1 162.457 25.1ZM162.482 27.75C161.765 27.75 161.165 27.9833 160.682 28.45C160.215 28.9167 159.94 29.6417 159.857 30.625H165.082C165.082 30.075 164.982 29.5833 164.782 29.15C164.599 28.7167 164.315 28.375 163.932 28.125C163.549 27.875 163.065 27.75 162.482 27.75Z" fill="white"/>
</g>
<defs>
<clipPath id="clip0_1_92">
<rect width="200" height="60" fill="white"/>
</clipPath>
</defs>
</svg>
