<svg width="42" height="42" viewBox="0 0 42 42" fill="none" xmlns="http://www.w3.org/2000/svg">
<g clip-path="url(#clip0_1_19377)">
<path fill-rule="evenodd" clip-rule="evenodd" d="M3.945 1.81872C4.18778 1.27379 4.63703 0.847578 5.19397 0.633801C5.75092 0.420024 6.36996 0.43618 6.915 0.678715L32.688 12.1627L33.771 9.77771C33.9555 9.37198 34.2564 9.0302 34.6355 8.79573C35.0146 8.56126 35.4548 8.44466 35.9002 8.46073C36.3457 8.4768 36.7763 8.62481 37.1375 8.88599C37.4987 9.14716 37.7742 9.50974 37.929 9.92772L40.329 16.4077C40.5363 16.9652 40.5144 17.582 40.2682 18.1234C40.0219 18.6647 39.5714 19.0866 39.015 19.2967L32.565 21.7267C32.1479 21.8848 31.6932 21.9154 31.2587 21.8145C30.8242 21.7136 30.4295 21.4859 30.1247 21.1602C29.8199 20.8345 29.6188 20.4256 29.5469 19.9853C29.475 19.5451 29.5356 19.0934 29.721 18.6877L30.825 16.2577L5.085 4.79172C4.54007 4.54894 4.11386 4.09969 3.90009 3.54274C3.68631 2.9858 3.70246 2.36375 3.945 1.81872ZM3.75 16.5007C2.95435 16.5007 2.19129 16.8168 1.62868 17.3794C1.06607 17.942 0.75 18.7051 0.75 19.5007V40.5007C0.75 40.8985 0.908035 41.2801 1.18934 41.5614C1.47064 41.8427 1.85218 42.0007 2.25 42.0007H9.75C10.1478 42.0007 10.5294 41.8427 10.8107 41.5614C11.092 41.2801 11.25 40.8985 11.25 40.5007V19.5007C11.25 18.7051 10.9339 17.942 10.3713 17.3794C9.80871 16.8168 9.04565 16.5007 8.25 16.5007H3.75ZM16.629 21.8797C17.1915 21.3171 17.9544 21.0009 18.75 21.0007H23.25C24.0456 21.0007 24.8087 21.3168 25.3713 21.8794C25.9339 22.442 26.25 23.2051 26.25 24.0007V40.5007C26.25 40.8985 26.092 41.2801 25.8107 41.5614C25.5294 41.8427 25.1478 42.0007 24.75 42.0007H17.25C16.8522 42.0007 16.4706 41.8427 16.1893 41.5614C15.908 41.2801 15.75 40.8985 15.75 40.5007V24.0007C15.7502 23.2051 16.0664 22.4422 16.629 21.8797ZM33.75 25.5007C32.9543 25.5007 32.1913 25.8168 31.6287 26.3794C31.0661 26.942 30.75 27.7051 30.75 28.5007V40.5007C30.75 40.8985 30.908 41.2801 31.1893 41.5614C31.4706 41.8427 31.8522 42.0007 32.25 42.0007H39.75C40.1478 42.0007 40.5294 41.8427 40.8107 41.5614C41.092 41.2801 41.25 40.8985 41.25 40.5007V28.5007C41.25 27.7051 40.9339 26.942 40.3713 26.3794C39.8087 25.8168 39.0457 25.5007 38.25 25.5007H33.75Z" fill="#D3176D"/>
</g>
<defs>
<clipPath id="clip0_1_19377">
<rect width="42" height="42" fill="white"/>
</clipPath>
</defs>
</svg>
