<svg width="43" height="43" viewBox="0 0 43 43" fill="none" xmlns="http://www.w3.org/2000/svg">
<path fill-rule="evenodd" clip-rule="evenodd" d="M30.7028 0.677108C31.0253 0.353711 31.4366 0.133453 31.8845 0.0443115C32.3324 -0.0448298 32.7966 0.00116914 33.2183 0.176465L39.7513 2.88547C40.3146 3.11809 40.7629 3.56453 40.9978 4.12698C41.2326 4.68943 41.235 5.32204 41.0044 5.88625L38.3353 12.4192C38.1629 12.841 37.8692 13.2023 37.4914 13.4572C37.1136 13.7121 36.6687 13.8492 36.213 13.8511C35.7573 13.8531 35.3112 13.7199 34.9312 13.4682C34.5512 13.2166 34.2544 12.858 34.0783 12.4376L33.0248 9.91904L6.49384 21.2557C6.21553 21.3747 5.91651 21.4377 5.61385 21.4411C5.31119 21.4445 5.01083 21.3883 4.7299 21.2756C4.44897 21.163 4.19298 20.9961 3.97654 20.7845C3.76011 20.5729 3.58747 20.3208 3.46848 20.0425C3.34949 19.7642 3.28649 19.4651 3.28306 19.1625C3.27964 18.8598 3.33586 18.5595 3.44852 18.2785C3.56117 17.9976 3.72806 17.7416 3.93965 17.5252C4.15124 17.3087 4.40339 17.1361 4.6817 17.0171L31.2465 5.66818L30.2114 3.19568C30.0343 2.77447 29.9865 2.3101 30.074 1.86163C30.1615 1.41316 30.3804 1.00084 30.7028 0.677108ZM39.1585 16.8328C39.9731 16.8328 40.7543 17.1564 41.3303 17.7324C41.9063 18.3084 42.2299 19.0897 42.2299 19.9043V41.4043C42.2299 41.8115 42.0681 42.2022 41.7801 42.4902C41.4921 42.7782 41.1015 42.94 40.6942 42.94H33.0156C32.6083 42.94 32.2177 42.7782 31.9297 42.4902C31.6417 42.2022 31.4799 41.8115 31.4799 41.4043V19.9043C31.4799 19.0897 31.8035 18.3084 32.3795 17.7324C32.9555 17.1564 33.7367 16.8328 34.5513 16.8328H39.1585ZM25.9728 22.3368C25.3965 21.7619 24.6154 21.4393 23.8013 21.44H19.1942C18.3796 21.44 17.5984 21.7636 17.0224 22.3396C16.4464 22.9156 16.1228 23.6968 16.1228 24.5114V41.4043C16.1228 41.8115 16.2846 42.2022 16.5726 42.4902C16.8606 42.7782 17.2512 42.94 17.6585 42.94H25.3371C25.7443 42.94 26.135 42.7782 26.423 42.4902C26.711 42.2022 26.8728 41.8115 26.8728 41.4043V24.5114C26.8731 24.1076 26.7938 23.7076 26.6393 23.3345C26.4849 22.9614 26.2584 22.6223 25.9728 22.3368ZM8.4442 26.0471C9.25879 26.0471 10.04 26.3707 10.616 26.9467C11.192 27.5227 11.5156 28.3039 11.5156 29.1185V41.4043C11.5156 41.8115 11.3538 42.2022 11.0658 42.4902C10.7778 42.7782 10.3872 42.94 9.97991 42.94H2.30134C1.89404 42.94 1.50343 42.7782 1.21543 42.4902C0.927423 42.2022 0.765625 41.8115 0.765625 41.4043V29.1185C0.765625 28.3039 1.08922 27.5227 1.66523 26.9467C2.24123 26.3707 3.02246 26.0471 3.83705 26.0471H8.4442Z" fill="white"/>
</svg>
