<svg width="50" height="50" viewBox="0 0 50 50" fill="none" xmlns="http://www.w3.org/2000/svg">
<path d="M25 46.875C12.9375 46.875 3.125 37.0625 3.125 25C3.125 12.9375 12.9375 3.125 25 3.125C37.0625 3.125 46.875 12.9375 46.875 25C46.875 37.0625 37.0625 46.875 25 46.875ZM25 6.25C14.6562 6.25 6.25 14.6562 6.25 25C6.25 35.3438 14.6562 43.75 25 43.75C35.3438 43.75 43.75 35.3438 43.75 25C43.75 14.6562 35.3438 6.25 25 6.25Z" fill="#D3176D"/>
<path d="M31.25 32.8125C30.9688 32.8125 30.6875 32.75 30.4375 32.5938L22.625 27.9063C22.3947 27.766 22.2046 27.5686 22.0731 27.3331C21.9417 27.0976 21.8735 26.8322 21.875 26.5625V14.0625C21.875 13.1875 22.5625 12.5 23.4375 12.5C24.3125 12.5 25 13.1875 25 14.0625V25.6875L32.0625 29.9062C32.3534 30.0845 32.5783 30.3528 32.703 30.6704C32.8277 30.988 32.8454 31.3376 32.7536 31.6661C32.6617 31.9947 32.4652 32.2844 32.1939 32.4913C31.9226 32.6981 31.5912 32.8109 31.25 32.8125Z" fill="#D3176D"/>
</svg>
