<svg width="30" height="30" viewBox="0 0 30 30" fill="none" xmlns="http://www.w3.org/2000/svg">
<path d="M18.75 9.375H25.3125V11.25H18.75V9.375ZM18.75 15H28.125V16.875H18.75V15ZM18.75 20.625H25.3125V22.5H18.75V20.625ZM9.37501 18.9225V6.5625H7.50001V18.9225C6.87449 19.1437 6.3473 19.5788 6.0116 20.1511C5.6759 20.7233 5.55332 21.3958 5.66551 22.0498C5.7777 22.7037 6.11745 23.2968 6.6247 23.7245C7.13195 24.1521 7.77405 24.3867 8.43751 24.3867C9.10096 24.3867 9.74306 24.1521 10.2503 23.7245C10.7576 23.2968 11.0973 22.7037 11.2095 22.0498C11.3217 21.3958 11.1991 20.7233 10.8634 20.1511C10.5277 19.5788 10.0005 19.1437 9.37501 18.9225Z" fill="#AAA7A7"/>
<path d="M28.125 3.75039H12.1631C11.5749 2.96356 10.7536 2.38218 9.81597 2.08894C8.87834 1.7957 7.87214 1.80552 6.94041 2.11699C6.00869 2.42847 5.19887 3.02575 4.6261 3.82391C4.05334 4.62207 3.74677 5.58049 3.75 6.56289V16.9785C2.84563 17.9015 2.23389 19.071 1.99149 20.3403C1.74909 21.6096 1.88683 22.9222 2.38744 24.1136C2.88804 25.3049 3.72922 26.3219 4.80551 27.0371C5.88179 27.7523 7.14527 28.1338 8.4375 28.1338C9.72974 28.1338 10.9932 27.7523 12.0695 27.0371C13.1458 26.3219 13.987 25.3049 14.4876 24.1136C14.9882 22.9222 15.1259 21.6096 14.8835 20.3403C14.6411 19.071 14.0294 17.9015 13.125 16.9785V6.56289C13.125 6.24801 13.0933 5.93392 13.0303 5.62539H28.125V3.75039ZM8.4375 26.2504C7.48851 26.2518 6.56151 25.9646 5.77943 25.4271C4.99734 24.8896 4.3971 24.1271 4.0583 23.2406C3.7195 22.3542 3.65814 21.3857 3.88235 20.4635C4.10656 19.5414 4.60576 18.7092 5.31375 18.0773L5.625 17.797V6.56289C5.625 5.81697 5.92132 5.1016 6.44877 4.57416C6.97621 4.04671 7.69158 3.75039 8.4375 3.75039C9.18342 3.75039 9.8988 4.04671 10.4262 4.57416C10.9537 5.1016 11.25 5.81697 11.25 6.56289V17.797L11.5613 18.0773C12.2692 18.7092 12.7684 19.5414 12.9927 20.4635C13.2169 21.3857 13.1555 22.3542 12.8167 23.2406C12.4779 24.1271 11.8777 24.8896 11.0956 25.4271C10.3135 25.9646 9.3865 26.2518 8.4375 26.2504Z" fill="#AAA7A7"/>
</svg>
