<svg width="17" height="13" viewBox="0 0 17 13" fill="none" xmlns="http://www.w3.org/2000/svg">
<path d="M2.1237 0.833984C1.74797 0.833984 1.38764 0.98324 1.12196 1.24892C0.856287 1.51459 0.707031 1.87493 0.707031 2.25065V10.0423H2.1237C2.1237 10.6059 2.34758 11.1464 2.7461 11.5449C3.14461 11.9434 3.68511 12.1673 4.2487 12.1673C4.81228 12.1673 5.35279 11.9434 5.7513 11.5449C6.14981 11.1464 6.3737 10.6059 6.3737 10.0423H10.6237C10.6237 10.6059 10.8476 11.1464 11.2461 11.5449C11.6446 11.9434 12.1851 12.1673 12.7487 12.1673C13.3123 12.1673 13.8528 11.9434 14.2513 11.5449C14.6498 11.1464 14.8737 10.6059 14.8737 10.0423H16.2904V6.50065L14.1654 3.66732H12.0404V0.833984M7.08203 2.25065L9.91536 5.08398L7.08203 7.91732V5.79232H2.83203V4.37565H7.08203M12.0404 4.72982H13.8112L15.2066 6.50065H12.0404M4.2487 8.97982C4.53049 8.97982 4.80074 9.09176 5 9.29102C5.19926 9.49027 5.3112 9.76052 5.3112 10.0423C5.3112 10.3241 5.19926 10.5944 5 10.7936C4.80074 10.9929 4.53049 11.1048 4.2487 11.1048C3.96691 11.1048 3.69665 10.9929 3.4974 10.7936C3.29814 10.5944 3.1862 10.3241 3.1862 10.0423C3.1862 9.76052 3.29814 9.49027 3.4974 9.29102C3.69665 9.09176 3.96691 8.97982 4.2487 8.97982ZM12.7487 8.97982C13.0305 8.97982 13.3007 9.09176 13.5 9.29102C13.6993 9.49027 13.8112 9.76052 13.8112 10.0423C13.8112 10.3241 13.6993 10.5944 13.5 10.7936C13.3007 10.9929 13.0305 11.1048 12.7487 11.1048C12.4669 11.1048 12.1967 10.9929 11.9974 10.7936C11.7981 10.5944 11.6862 10.3241 11.6862 10.0423C11.6862 9.76052 11.7981 9.49027 11.9974 9.29102C12.1967 9.09176 12.4669 8.97982 12.7487 8.97982Z" fill="#929292"/>
</svg>
