<svg width="36" height="36" viewBox="0 0 36 36" fill="none" xmlns="http://www.w3.org/2000/svg">
<path d="M15.75 4.5H11.25C10.2158 4.5 9.19181 4.70369 8.23637 5.09945C7.28093 5.4952 6.4128 6.07527 5.68153 6.80653C4.95027 7.5378 4.3702 8.40593 3.97445 9.36137C3.57869 10.3168 3.375 11.3408 3.375 12.375C3.375 13.4092 3.57869 14.4332 3.97445 15.3886C4.3702 16.3441 4.95027 17.2122 5.68153 17.9435C6.4128 18.6747 7.28093 19.2548 8.23637 19.6506C9.19181 20.0463 10.2158 20.25 11.25 20.25H15.75V27H5.625V31.5H15.75V36H20.25V31.5H24.75C26.8386 31.5 28.8416 30.6703 30.3185 29.1935C31.7953 27.7166 32.625 25.7136 32.625 23.625C32.625 21.5364 31.7953 19.5334 30.3185 18.0565C28.8416 16.5797 26.8386 15.75 24.75 15.75H20.25V9H30.375V4.5H20.25V0H15.75V4.5ZM20.25 20.25H24.75C25.6451 20.25 26.5036 20.6056 27.1365 21.2385C27.7694 21.8714 28.125 22.7299 28.125 23.625C28.125 24.5201 27.7694 25.3786 27.1365 26.0115C26.5036 26.6444 25.6451 27 24.75 27H20.25V20.25ZM15.75 15.75H11.25C10.8068 15.75 10.3679 15.6627 9.95844 15.4931C9.54897 15.3235 9.17691 15.0749 8.86351 14.7615C8.55012 14.4481 8.30152 14.076 8.13191 13.6666C7.9623 13.2571 7.875 12.8182 7.875 12.375C7.875 11.9318 7.9623 11.4929 8.13191 11.0834C8.30152 10.674 8.55012 10.3019 8.86351 9.98851C9.17691 9.67512 9.54897 9.42652 9.95844 9.25691C10.3679 9.0873 10.8068 9 11.25 9H15.75V15.75Z" fill="white"/>
</svg>
