<svg width="30" height="30" viewBox="0 0 30 30" fill="none" xmlns="http://www.w3.org/2000/svg">
<path d="M26.4675 6.34311C25.1067 4.98628 23.2642 4.2231 21.3425 4.22024C19.4209 4.21739 17.5761 4.9751 16.2113 6.32788L15.0019 7.45054L13.7925 6.32788C12.4281 4.96688 10.5789 4.20364 8.65177 4.20606C6.72462 4.20848 4.87735 4.97636 3.51636 6.34077C2.15536 7.70519 1.39212 9.55437 1.39454 11.4815C1.39695 13.4087 2.16483 15.2559 3.52925 16.6169L13.9999 27.24C14.1308 27.3729 14.2868 27.4784 14.4588 27.5504C14.6308 27.6224 14.8154 27.6595 15.0019 27.6595C15.1884 27.6595 15.373 27.6224 15.545 27.5504C15.717 27.4784 15.873 27.3729 16.0039 27.24L26.4675 16.624C27.1425 15.9493 27.678 15.1482 28.0433 14.2665C28.4086 13.3847 28.5967 12.4397 28.5967 11.4853C28.5967 10.5309 28.4086 9.58586 28.0433 8.70415C27.678 7.82244 27.1425 7.02135 26.4675 6.34663V6.34311ZM24.4753 14.6388L15.0019 24.2458L5.52495 14.6306C4.69269 13.7949 4.22596 12.6631 4.22718 11.4837C4.2284 10.3043 4.69748 9.17347 5.53147 8.33948C6.36546 7.50548 7.49625 7.03641 8.67569 7.03519C9.85513 7.03397 10.9869 7.5007 11.8226 8.33296C11.8343 8.34468 11.846 8.3564 11.8589 8.36694L14.0433 10.4013C14.3036 10.6438 14.6461 10.7787 15.0019 10.7787C15.3577 10.7787 15.7002 10.6438 15.9605 10.4013L18.1449 8.36694C18.1578 8.3564 18.1695 8.34468 18.1812 8.33296C18.5952 7.91991 19.0866 7.59246 19.6272 7.3693C20.1678 7.14614 20.7471 7.03165 21.3319 7.03236C21.9167 7.03307 22.4957 7.14896 23.0358 7.37342C23.5758 7.59789 24.0664 7.92653 24.4794 8.34058C24.8925 8.75462 25.2199 9.24597 25.4431 9.78657C25.6663 10.3272 25.7807 10.9064 25.78 11.4913C25.7793 12.0761 25.6634 12.6551 25.439 13.1952C25.2145 13.7352 24.8859 14.2258 24.4718 14.6388H24.4753Z" fill="white"/>
</svg>
