<svg width="40" height="40" viewBox="0 0 40 40" fill="none" xmlns="http://www.w3.org/2000/svg">
<mask id="mask0_1_16670" style="mask-type:luminance" maskUnits="userSpaceOnUse" x="2" y="2" width="36" height="36">
<path d="M36.6693 23.332H23.3359V36.6654H36.6693V23.332ZM10.8359 3.33203L18.3359 16.6654H3.33594L10.8359 3.33203ZM30.0026 16.6654C31.7707 16.6654 33.4664 15.963 34.7166 14.7127C35.9669 13.4625 36.6693 11.7668 36.6693 9.9987C36.6693 8.23059 35.9669 6.5349 34.7166 5.28465C33.4664 4.03441 31.7707 3.33203 30.0026 3.33203C28.2345 3.33203 26.5388 4.03441 25.2886 5.28465C24.0383 6.5349 23.3359 8.23059 23.3359 9.9987C23.3359 11.7668 24.0383 13.4625 25.2886 14.7127C26.5388 15.963 28.2345 16.6654 30.0026 16.6654Z" fill="white" stroke="white" stroke-width="1.5" stroke-linejoin="round"/>
<path d="M3.33594 23.332L16.6693 36.6654M16.6693 23.332L3.33594 36.6654" stroke="white" stroke-width="1.5" stroke-linecap="round" stroke-linejoin="round"/>
</mask>
<g mask="url(#mask0_1_16670)">
<path d="M0 0H40V40H0V0Z" fill="white"/>
</g>
</svg>
