<svg width="40" height="40" viewBox="0 0 40 40" fill="none" xmlns="http://www.w3.org/2000/svg">
<g clip-path="url(#clip0_1_16711)">
<path d="M23.1851 22.0781V21.975L22.7584 13.725C22.7465 13.5016 22.6813 13.3082 22.5628 13.1449C22.4442 12.9816 22.3079 12.9 22.1538 12.9H18.8467C18.6926 12.9 18.5563 12.9816 18.4378 13.1449C18.3192 13.3082 18.254 13.5016 18.2422 13.725L17.8155 21.975V22.0781C17.8036 22.2844 17.851 22.4562 17.9577 22.5938C18.0644 22.7312 18.1888 22.8 18.3311 22.8H22.6694C22.8117 22.8 22.9362 22.7312 23.0428 22.5938C23.1495 22.4562 23.1969 22.2844 23.1851 22.0781ZM36.6802 34.118C36.6802 35.3727 36.4076 36 35.8623 36H23.3451C23.4992 36 23.6296 35.9184 23.7363 35.7551C23.8429 35.5918 23.8904 35.3984 23.8785 35.175L23.5229 28.575C23.511 28.3516 23.4459 28.1582 23.3273 27.9949C23.2088 27.8316 23.0725 27.75 22.9184 27.75H18.0822C17.9281 27.75 17.7918 27.8316 17.6732 27.9949C17.5547 28.1582 17.4895 28.3516 17.4776 28.575L17.122 35.175C17.1102 35.3984 17.1576 35.5918 17.2643 35.7551C17.371 35.9184 17.5013 36 17.6554 36H5.1382C4.59294 36 4.32031 35.3727 4.32031 34.118C4.32031 33.1898 4.47441 32.193 4.7826 31.1273L12.1969 4.21172C12.2918 3.88516 12.4459 3.60156 12.6592 3.36094C12.8726 3.12031 13.0978 3 13.3349 3H19.3623C19.2082 3 19.0719 3.08164 18.9534 3.24492C18.8349 3.4082 18.7697 3.60156 18.7578 3.825L18.4911 8.775C18.4793 9.01562 18.5267 9.21328 18.6334 9.36797C18.74 9.52266 18.8704 9.6 19.0245 9.6H21.976C22.1301 9.6 22.2605 9.52266 22.3672 9.36797C22.4739 9.21328 22.5213 9.01562 22.5094 8.775L22.2427 3.825C22.2309 3.60156 22.1657 3.4082 22.0471 3.24492C21.9286 3.08164 21.7923 3 21.6382 3H27.6657C27.9027 3 28.128 3.12031 28.3413 3.36094C28.5547 3.60156 28.7088 3.88516 28.8036 4.21172L36.2179 31.1273C36.5261 32.193 36.6802 33.1898 36.6802 34.118Z" fill="white"/>
</g>
<defs>
<clipPath id="clip0_1_16711">
<rect width="33" height="33" fill="white" transform="translate(4 3)"/>
</clipPath>
</defs>
</svg>
