<svg width="26" height="26" viewBox="0 0 26 26" fill="none" xmlns="http://www.w3.org/2000/svg">
<path d="M15.5 9.25H10.5C10.1685 9.25 9.85054 9.3817 9.61612 9.61612C9.3817 9.85054 9.25 10.1685 9.25 10.5V15.5C9.25 15.8315 9.3817 16.1495 9.61612 16.3839C9.85054 16.6183 10.1685 16.75 10.5 16.75H15.5C15.8315 16.75 16.1495 16.6183 16.3839 16.3839C16.6183 16.1495 16.75 15.8315 16.75 15.5V10.5C16.75 10.1685 16.6183 9.85054 16.3839 9.61612C16.1495 9.3817 15.8315 9.25 15.5 9.25ZM14.25 14.25H11.75V11.75H14.25V14.25ZM24.25 14.25C24.5815 14.25 24.8995 14.1183 25.1339 13.8839C25.3683 13.6495 25.5 13.3315 25.5 13C25.5 12.6685 25.3683 12.3505 25.1339 12.1161C24.8995 11.8817 24.5815 11.75 24.25 11.75H21.75V9.25H24.25C24.5815 9.25 24.8995 9.1183 25.1339 8.88388C25.3683 8.64946 25.5 8.33152 25.5 8C25.5 7.66848 25.3683 7.35054 25.1339 7.11612C24.8995 6.8817 24.5815 6.75 24.25 6.75H21.525C21.3384 6.22575 21.0374 5.74962 20.6439 5.35612C20.2504 4.96263 19.7742 4.66165 19.25 4.475V1.75C19.25 1.41848 19.1183 1.10054 18.8839 0.866116C18.6495 0.631696 18.3315 0.5 18 0.5C17.6685 0.5 17.3505 0.631696 17.1161 0.866116C16.8817 1.10054 16.75 1.41848 16.75 1.75V4.25H14.25V1.75C14.25 1.41848 14.1183 1.10054 13.8839 0.866116C13.6495 0.631696 13.3315 0.5 13 0.5C12.6685 0.5 12.3505 0.631696 12.1161 0.866116C11.8817 1.10054 11.75 1.41848 11.75 1.75V4.25H9.25V1.75C9.25 1.41848 9.1183 1.10054 8.88388 0.866116C8.64946 0.631696 8.33152 0.5 8 0.5C7.66848 0.5 7.35054 0.631696 7.11612 0.866116C6.8817 1.10054 6.75 1.41848 6.75 1.75V4.475C6.22575 4.66165 5.74962 4.96263 5.35612 5.35612C4.96263 5.74962 4.66165 6.22575 4.475 6.75H1.75C1.41848 6.75 1.10054 6.8817 0.866116 7.11612C0.631696 7.35054 0.5 7.66848 0.5 8C0.5 8.33152 0.631696 8.64946 0.866116 8.88388C1.10054 9.1183 1.41848 9.25 1.75 9.25H4.25V11.75H1.75C1.41848 11.75 1.10054 11.8817 0.866116 12.1161C0.631696 12.3505 0.5 12.6685 0.5 13C0.5 13.3315 0.631696 13.6495 0.866116 13.8839C1.10054 14.1183 1.41848 14.25 1.75 14.25H4.25V16.75H1.75C1.41848 16.75 1.10054 16.8817 0.866116 17.1161C0.631696 17.3505 0.5 17.6685 0.5 18C0.5 18.3315 0.631696 18.6495 0.866116 18.8839C1.10054 19.1183 1.41848 19.25 1.75 19.25H4.475C4.66165 19.7742 4.96263 20.2504 5.35612 20.6439C5.74962 21.0374 6.22575 21.3384 6.75 21.525V24.25C6.75 24.5815 6.8817 24.8995 7.11612 25.1339C7.35054 25.3683 7.66848 25.5 8 25.5C8.33152 25.5 8.64946 25.3683 8.88388 25.1339C9.1183 24.8995 9.25 24.5815 9.25 24.25V21.75H11.75V24.25C11.75 24.5815 11.8817 24.8995 12.1161 25.1339C12.3505 25.3683 12.6685 25.5 13 25.5C13.3315 25.5 13.6495 25.3683 13.8839 25.1339C14.1183 24.8995 14.25 24.5815 14.25 24.25V21.75H16.75V24.25C16.75 24.5815 16.8817 24.8995 17.1161 25.1339C17.3505 25.3683 17.6685 25.5 18 25.5C18.3315 25.5 18.6495 25.3683 18.8839 25.1339C19.1183 24.8995 19.25 24.5815 19.25 24.25V21.525C19.7742 21.3384 20.2504 21.0374 20.6439 20.6439C21.0374 20.2504 21.3384 19.7742 21.525 19.25H24.25C24.5815 19.25 24.8995 19.1183 25.1339 18.8839C25.3683 18.6495 25.5 18.3315 25.5 18C25.5 17.6685 25.3683 17.3505 25.1339 17.1161C24.8995 16.8817 24.5815 16.75 24.25 16.75H21.75V14.25H24.25ZM19.25 18C19.25 18.3315 19.1183 18.6495 18.8839 18.8839C18.6495 19.1183 18.3315 19.25 18 19.25H8C7.66848 19.25 7.35054 19.1183 7.11612 18.8839C6.8817 18.6495 6.75 18.3315 6.75 18V8C6.75 7.66848 6.8817 7.35054 7.11612 7.11612C7.35054 6.8817 7.66848 6.75 8 6.75H18C18.3315 6.75 18.6495 6.8817 18.8839 7.11612C19.1183 7.35054 19.25 7.66848 19.25 8V18Z" fill="#AAA7A7"/>
</svg>
