<svg width="40" height="39" viewBox="0 0 40 39" fill="none" xmlns="http://www.w3.org/2000/svg">
<path d="M12.5 10V8.5C12.5 6.51088 13.2902 4.60322 14.6967 3.1967C16.1032 1.79018 18.0109 1 20 1C21.9891 1 23.8968 1.79018 25.3033 3.1967C26.7098 4.60322 27.5 6.51088 27.5 8.5V10M33.5 10H6.5C4.9087 10 3.38258 10.6321 2.25736 11.7574C1.13214 12.8826 0.5 14.4087 0.5 16V32.5C0.5 34.0913 1.13214 35.6174 2.25736 36.7426C3.38258 37.8679 4.9087 38.5 6.5 38.5H33.5C35.0913 38.5 36.6174 37.8679 37.7426 36.7426C38.8679 35.6174 39.5 34.0913 39.5 32.5V16C39.5 14.4087 38.8679 12.8826 37.7426 11.7574C36.6174 10.6321 35.0913 10 33.5 10Z" stroke="#D3176D" stroke-linecap="round" stroke-linejoin="round"/>
<path d="M15.5 20.5C15.5 19.61 15.7639 18.74 16.2584 17.9999C16.7529 17.2599 17.4557 16.6831 18.2779 16.3425C19.1002 16.0019 20.005 15.9128 20.8779 16.0865C21.7508 16.2601 22.5526 16.6887 23.182 17.318C23.8113 17.9474 24.2399 18.7492 24.4135 19.6221C24.5872 20.495 24.4981 21.3998 24.1575 22.2221C23.8169 23.0443 23.2401 23.7471 22.5001 24.2416C21.76 24.7361 20.89 25 20 25V26.5M20.006 32.5C19.8071 32.5 19.6163 32.421 19.4757 32.2803C19.335 32.1397 19.256 31.9489 19.256 31.75C19.256 31.5511 19.335 31.3603 19.4757 31.2197C19.6163 31.079 19.8071 31 20.006 31C20.2049 31 20.3957 31.079 20.5363 31.2197C20.677 31.3603 20.756 31.5511 20.756 31.75C20.756 31.9489 20.677 32.1397 20.5363 32.2803C20.3957 32.421 20.2049 32.5 20.006 32.5Z" stroke="#D3176D" stroke-linecap="round" stroke-linejoin="round"/>
</svg>
