<svg width="17" height="17" viewBox="0 0 17 17" fill="none" xmlns="http://www.w3.org/2000/svg">
<mask id="mask0_1_6930" style="mask-type:alpha" maskUnits="userSpaceOnUse" x="4" y="3" width="10" height="12">
<path d="M13.8125 3.1875H6.375H4.78125L4.25 5.3125V10.625L6.375 14.3438L9.03125 14.875L10.0938 14.3438L11.6875 11.6875L13.8125 7.96875V3.1875Z" fill="#D9D9D9"/>
</mask>
<g mask="url(#mask0_1_6930)">
<path d="M7.4375 11.6875H9.5625V13.8125H7.4375V11.6875ZM11.6875 4.25C11.9693 4.25 12.2395 4.36194 12.4388 4.5612C12.6381 4.76046 12.75 5.03071 12.75 5.3125V8.5L9.5625 10.625H7.4375V9.5625L10.625 7.4375V6.375H5.3125V4.25H11.6875ZM8.5 0C6.6555 0 4.92044 2.312 3.61675 3.61675C2.31306 4.9215 1.59375 6.6555 1.59375 8.5C1.59375 10.3445 2.312 12.0796 3.61675 13.3832C4.9215 14.6869 6.6555 15.4062 8.5 15.4062C10.3445 15.4062 12.0796 14.688 13.3832 13.3832C14.6869 12.0785 15.4062 10.3445 15.4062 8.5C15.4062 6.6555 16.1798 4.18144 14.875 2.87776C13.5702 1.57407 10.3445 0 8.5 0ZM8.5 0C10.7543 0 12.75 1.38292 14.5104 2.48959C16.1045 4.08365 17 6.24566 17 8.5C17 10.7543 16.1045 12.9163 14.5104 14.5104C12.9163 16.1045 10.7543 17 8.5 17C6.24566 17 4.08365 16.1045 2.48959 14.5104C0.895533 12.9163 0 10.7543 0 8.5C0 6.24566 0.895533 4.08365 2.48959 2.48959C4.08365 0.895533 6.24566 0 8.5 0Z" fill="#929292"/>
</g>
</svg>
