<svg width="20" height="20" viewBox="0 0 20 20" fill="none" xmlns="http://www.w3.org/2000/svg">
<path d="M15.408 10C15.408 7.234 16.685 5.68 17.685 5.68H19C18.332 4.621 17.779 4 15.342 4H5.334C1.6 4 0 7.441 0 10C0 12.559 1.6 16 5.334 16H15.342C17.78 16 18.332 15.379 19 14.32H17.685C16.685 14.32 15.408 12.766 15.408 10ZM12.688 11.795C12.524 12.045 12.012 11.811 12.012 11.811L9.055 10.473C9.055 10.473 8.791 11.143 8.588 11.614C8.383 12.085 8.227 12.618 7.379 12.022C6.53 11.424 3.798 8.772 3.798 8.772C3.798 8.772 3.453 8.488 3.625 8.221C3.788 7.969 4.301 8.205 4.301 8.205L7.257 9.541C7.257 9.541 7.522 8.873 7.725 8.402C7.93 7.932 8.086 7.396 8.934 7.994C9.783 8.59 12.514 11.244 12.514 11.244C12.514 11.244 12.859 11.527 12.688 11.795ZM18.874 7.928H18.125C17.566 7.928 17.02 8.682 17.02 9.907C17.02 11.134 17.567 11.887 18.125 11.887H18.874C19.434 11.887 20 11.133 20 9.907C20 8.682 19.434 7.928 18.874 7.928Z" fill="white"/>
</svg>
