<svg width="24" height="24" viewBox="0 0 24 24" fill="none" xmlns="http://www.w3.org/2000/svg">
<path d="M20 10C19.7167 10 19.4793 9.904 19.288 9.712C19.0967 9.52 19.0007 9.28267 19 9C18.9993 8.71733 19.0953 8.48 19.288 8.288C19.4807 8.096 19.718 8 20 8C20.282 8 20.5197 8.096 20.713 8.288C20.9063 8.48 21.002 8.71733 21 9C20.998 9.28267 20.902 9.52033 20.712 9.713C20.522 9.90567 20.2847 10.0013 20 10ZM10 22V18.4L7.4 21L6 19.6L10 15.6V14H8.4L4.4 18L3 16.6L5.6 14H2V12H5.6L3 9.4L4.4 8L8.4 12H10V10.4L6 6.4L7.4 5L10 7.6V4H12V7.6L14.6 5L16 6.4L12 10.4V12H20V14H16.4L19 16.6L17.6 18L13.6 14H12V15.6L16 19.6L14.6 21L12 18.4V22H10ZM19 7V2H21V7H19Z" fill="white"/>
</svg>
