<svg width="22" height="22" viewBox="0 0 22 22" fill="none" xmlns="http://www.w3.org/2000/svg">
<path d="M11.6875 20.625C10.6277 20.6255 9.59739 20.2761 8.75646 19.6311C7.91553 18.9861 7.31103 18.0816 7.03677 17.0579C6.76251 16.0342 6.83383 14.9486 7.23967 13.9696C7.64551 12.9906 8.36316 12.1729 9.28125 11.6435L9.625 11.4455V3.4375C9.62312 2.95102 9.79371 2.47962 10.1065 2.10702C10.4193 1.73441 10.854 1.48472 11.3334 1.40228C11.8129 1.31985 12.306 1.41 12.7253 1.65674C13.1445 1.90348 13.4628 2.29083 13.6235 2.75H11.6875V4.125H13.75V5.5H11.6875V6.875H13.75V8.25H11.6875V9.625H13.75V11.4455L14.0938 11.6435C15.0118 12.1729 15.7295 12.9906 16.1353 13.9696C16.5412 14.9486 16.6125 16.0342 16.3382 17.0579C16.064 18.0816 15.4595 18.9861 14.6185 19.6311C13.7776 20.2761 12.7473 20.6255 11.6875 20.625ZM15.125 10.6672V3.4375C15.125 2.52582 14.7628 1.65148 14.1182 1.00682C13.4735 0.362164 12.5992 0 11.6875 0C10.7758 0 9.90148 0.362164 9.25682 1.00682C8.61216 1.65148 8.25 2.52582 8.25 3.4375V10.6672C7.14626 11.4047 6.30894 12.4776 5.86172 13.7274C5.4145 14.9773 5.38109 16.3378 5.76642 17.6081C6.15174 18.8784 6.93538 19.9911 8.00159 20.7819C9.0678 21.5726 10.3601 21.9995 11.6875 21.9995C13.0149 21.9995 14.3072 21.5726 15.3734 20.7819C16.4396 19.9911 17.2233 18.8784 17.6086 17.6081C17.9939 16.3378 17.9605 14.9773 17.5133 13.7274C17.0661 12.4776 16.2287 11.4047 15.125 10.6672Z" fill="white"/>
<path d="M11.6875 12.375C12.5992 12.375 13.4735 12.7372 14.1182 13.3818C14.7628 14.0265 15.125 14.9008 15.125 15.8125C15.125 16.7242 14.7628 17.5985 14.1182 18.2432C13.4735 18.8878 12.5992 19.25 11.6875 19.25C10.7758 19.25 9.90148 18.8878 9.25682 18.2432C8.61216 17.5985 8.25 16.7242 8.25 15.8125C8.25 14.9008 8.61216 14.0265 9.25682 13.3818C9.90148 12.7372 10.7758 12.375 11.6875 12.375Z" fill="white"/>
</svg>
