<svg width="20" height="20" viewBox="0 0 20 20" fill="none" xmlns="http://www.w3.org/2000/svg">
<g clip-path="url(#clip0_1_19515)">
<path d="M11.2493 12.916C11.2493 12.1302 11.2493 11.7377 11.4935 11.4935C11.7377 11.2493 12.1302 11.2493 12.916 11.2493H16.666C17.4518 11.2493 17.8443 11.2493 18.0885 11.4935C18.3327 11.7377 18.3327 12.1302 18.3327 12.916V16.666C18.3327 17.4518 18.3327 17.8443 18.0885 18.0885C17.8443 18.3327 17.4518 18.3327 16.666 18.3327H12.916C12.1302 18.3327 11.7377 18.3327 11.4935 18.0885C11.2493 17.8443 11.2493 17.4518 11.2493 16.666V12.916ZM1.66602 3.33268C1.66602 2.54685 1.66602 2.15435 1.91018 1.91018C2.15435 1.66602 2.54685 1.66602 3.33268 1.66602H7.08268C7.86852 1.66602 8.26102 1.66602 8.50518 1.91018C8.74935 2.15435 8.74935 2.54685 8.74935 3.33268V7.08268C8.74935 7.86852 8.74935 8.26102 8.50518 8.50518C8.26102 8.74935 7.86852 8.74935 7.08268 8.74935H3.33268C2.54685 8.74935 2.15435 8.74935 1.91018 8.50518C1.66602 8.26102 1.66602 7.86852 1.66602 7.08268V3.33268ZM1.66602 12.916C1.66602 12.1302 1.66602 11.7377 1.91018 11.4935C2.15435 11.2493 2.54685 11.2493 3.33268 11.2493H7.08268C7.86852 11.2493 8.26102 11.2493 8.50518 11.4935C8.74935 11.7377 8.74935 12.1302 8.74935 12.916V16.666C8.74935 17.4518 8.74935 17.8443 8.50518 18.0885C8.26102 18.3327 7.86852 18.3327 7.08268 18.3327H3.33268C2.54685 18.3327 2.15435 18.3327 1.91018 18.0885C1.66602 17.8443 1.66602 17.4518 1.66602 16.666V12.916ZM11.2493 3.33268C11.2493 2.54685 11.2493 2.15435 11.4935 1.91018C11.7377 1.66602 12.1302 1.66602 12.916 1.66602H16.666C17.4518 1.66602 17.8443 1.66602 18.0885 1.91018C18.3327 2.15435 18.3327 2.54685 18.3327 3.33268V7.08268C18.3327 7.86852 18.3327 8.26102 18.0885 8.50518C17.8443 8.74935 17.4518 8.74935 16.666 8.74935H12.916C12.1302 8.74935 11.7377 8.74935 11.4935 8.50518C11.2493 8.26102 11.2493 7.86852 11.2493 7.08268V3.33268Z" stroke="white" stroke-width="1.5" stroke-linecap="round" stroke-linejoin="round"/>
</g>
<defs>
<clipPath id="clip0_1_19515">
<rect width="20" height="20" fill="white"/>
</clipPath>
</defs>
</svg>
