<svg width="22" height="22" viewBox="0 0 22 22" fill="none" xmlns="http://www.w3.org/2000/svg">
<path d="M19.2493 14.6668H2.74935V3.66683H19.2493M19.2493 1.8335H2.74935C1.73185 1.8335 0.916016 2.64933 0.916016 3.66683V14.6668C0.916016 15.1531 1.10917 15.6194 1.45299 15.9632C1.7968 16.307 2.26312 16.5002 2.74935 16.5002H9.16602V18.3335H7.33268V20.1668H14.666V18.3335H12.8327V16.5002H19.2493C20.2668 16.5002 21.0827 15.6843 21.0827 14.6668V3.66683C21.0827 3.1806 20.8895 2.71428 20.5457 2.37047C20.2019 2.02665 19.7356 1.8335 19.2493 1.8335ZM13.7493 5.04183L13.181 6.29766L11.916 6.87516L13.181 7.45266L13.7493 8.7085L14.3268 7.45266L15.5827 6.87516L14.3268 6.29766L13.7493 5.04183ZM9.62435 6.87516L8.62518 9.08433L6.41602 10.0835L8.62518 11.0827L9.62435 13.2918L10.6327 11.0827L12.8327 10.0835L10.6327 9.08433L9.62435 6.87516Z" fill="white"/>
</svg>
