<svg width="41" height="41" viewBox="0 0 41 41" fill="none" xmlns="http://www.w3.org/2000/svg">
<path d="M21.7812 38.4375C19.8062 38.4384 17.886 37.7873 16.3189 36.5853C14.7517 35.3833 13.6251 33.6975 13.114 31.7897C12.6029 29.8819 12.7358 27.8588 13.4921 26.0343C14.2484 24.2097 15.5859 22.6859 17.2969 21.6993L17.9375 21.3303V6.40625C17.934 5.49963 18.2519 4.62111 18.8348 3.92671C19.4177 3.23231 20.2279 2.76697 21.1214 2.61334C22.0149 2.45971 22.9339 2.62773 23.7153 3.08757C24.4966 3.5474 25.0897 4.26928 25.3892 5.125H21.7812V7.6875H25.625V10.25H21.7812V12.8125H25.625V15.375H21.7812V17.9375H25.625V21.3303L26.2656 21.6993C27.9766 22.6859 29.3141 24.2097 30.0704 26.0343C30.8267 27.8588 30.9596 29.8819 30.4485 31.7897C29.9374 33.6975 28.8108 35.3833 27.2436 36.5853C25.6765 37.7873 23.7563 38.4384 21.7812 38.4375ZM28.1875 19.8799V6.40625C28.1875 4.70721 27.5126 3.07775 26.3112 1.87635C25.1097 0.674942 23.4803 0 21.7812 0C20.0822 0 18.4528 0.674942 17.2513 1.87635C16.0499 3.07775 15.375 4.70721 15.375 6.40625V19.8799C13.318 21.2542 11.7576 23.2537 10.9241 25.583C10.0907 27.9122 10.0284 30.4478 10.7465 32.8151C11.4646 35.1825 12.925 37.2561 14.9121 38.7298C16.8991 40.2035 19.3074 40.9991 21.7812 40.9991C24.2551 40.9991 26.6634 40.2035 28.6504 38.7298C30.6375 37.2561 32.0979 35.1825 32.816 32.8151C33.5341 30.4478 33.4718 27.9122 32.6384 25.583C31.8049 23.2537 30.2445 21.2542 28.1875 19.8799Z" fill="#D3176D"/>
<path d="M21.7812 23.0625C23.4803 23.0625 25.1097 23.7374 26.3112 24.9388C27.5126 26.1403 28.1875 27.7697 28.1875 29.4688C28.1875 31.1678 27.5126 32.7972 26.3112 33.9987C25.1097 35.2001 23.4803 35.875 21.7812 35.875C20.0822 35.875 18.4528 35.2001 17.2513 33.9987C16.0499 32.7972 15.375 31.1678 15.375 29.4688C15.375 27.7697 16.0499 26.1403 17.2513 24.9388C18.4528 23.7374 20.0822 23.0625 21.7812 23.0625Z" fill="#D3176D"/>
</svg>
