<svg width="39" height="39" viewBox="0 0 39 39" fill="none" xmlns="http://www.w3.org/2000/svg">
<path d="M29.4007 8.16515L23.705 0.179688L2.76225 16.9103L1.60125 16.8977V16.9156H0.6875V38.4156H38.3125V16.9156H36.5889L33.1597 6.8841L29.4007 8.16515ZM32.8031 16.9156H14.8363L28.2182 12.3541L30.9452 11.4815L32.8031 16.9156ZM25.8604 9.37273L12.0467 14.0812L22.9866 5.34148L25.8604 9.37273ZM4.27083 31.5518V23.7759C5.02723 23.509 5.71429 23.0761 6.28163 22.5091C6.84897 21.9421 7.28221 21.2552 7.54958 20.499H31.4504C31.7176 21.2556 32.1507 21.9427 32.7181 22.5101C33.2854 23.0774 33.9726 23.5106 34.7292 23.7777V31.5536C33.9726 31.8207 33.2854 32.2538 32.7181 32.8212C32.1507 33.3886 31.7176 34.0757 31.4504 34.8323H7.55317C7.28475 34.0757 6.85077 33.3885 6.28291 32.8209C5.71505 32.2534 5.02764 31.8198 4.27083 31.5518Z" fill="#D3176D"/>
</svg>
