<svg width="43" height="43" viewBox="0 0 43 43" fill="none" xmlns="http://www.w3.org/2000/svg">
<path d="M1.78906 37.6237L21.4974 3.58203L41.2057 37.6237H1.78906ZM21.4974 32.2487C22.005 32.2487 22.4309 32.0767 22.7749 31.7327C23.1189 31.3887 23.2903 30.9635 23.2891 30.457C23.2879 29.9506 23.1159 29.5254 22.7731 29.1814C22.4303 28.8374 22.005 28.6654 21.4974 28.6654C20.9898 28.6654 20.5645 28.8374 20.2217 29.1814C19.8789 29.5254 19.7069 29.9506 19.7057 30.457C19.7045 30.9635 19.8765 31.3893 20.2217 31.7345C20.5669 32.0797 20.9921 32.2511 21.4974 32.2487ZM19.7057 26.8737H23.2891V17.9154H19.7057V26.8737Z" fill="#D3176D"/>
</svg>
